<mxfile host="app.diagrams.net" agent="Mozilla/5.0 (Windows NT 10.0; Win64; x64) AppleWebKit/537.36 (KHTML, like Gecko) Chrome/134.0.0.0 Safari/537.36" version="26.1.0">
  <diagram name="Page-1" id="rPx-ND3tR1v6-9SasS-W">
    <mxGraphModel dx="2545" dy="1738" grid="1" gridSize="10" guides="1" tooltips="1" connect="1" arrows="1" fold="1" page="1" pageScale="1" pageWidth="850" pageHeight="1100" math="0" shadow="0">
      <root>
        <mxCell id="0" />
        <mxCell id="1" parent="0" />
        <mxCell id="pl0MzwOkIgg34zQqI0X9-18" value="food" style="swimlane;fontStyle=1;align=center;verticalAlign=top;childLayout=stackLayout;horizontal=1;startSize=26;horizontalStack=0;resizeParent=1;resizeParentMax=0;resizeLast=0;collapsible=1;marginBottom=0;whiteSpace=wrap;html=1;" parent="1" vertex="1">
          <mxGeometry x="980" y="452" width="160" height="124" as="geometry" />
        </mxCell>
        <mxCell id="pl0MzwOkIgg34zQqI0X9-19" value="&lt;div&gt;- Cuisine: enum&lt;/div&gt;&lt;div&gt;- isHealthy: boolean&lt;br&gt;&lt;div&gt;- isVegan: boolean&lt;/div&gt;&lt;/div&gt;&lt;div&gt;- hasProtein: boolean&lt;/div&gt;" style="text;strokeColor=none;fillColor=none;align=left;verticalAlign=top;spacingLeft=4;spacingRight=4;overflow=hidden;rotatable=0;points=[[0,0.5],[1,0.5]];portConstraint=eastwest;whiteSpace=wrap;html=1;" parent="pl0MzwOkIgg34zQqI0X9-18" vertex="1">
          <mxGeometry y="26" width="160" height="64" as="geometry" />
        </mxCell>
        <mxCell id="pl0MzwOkIgg34zQqI0X9-20" value="" style="line;strokeWidth=1;fillColor=none;align=left;verticalAlign=middle;spacingTop=-1;spacingLeft=3;spacingRight=3;rotatable=0;labelPosition=right;points=[];portConstraint=eastwest;strokeColor=inherit;" parent="pl0MzwOkIgg34zQqI0X9-18" vertex="1">
          <mxGeometry y="90" width="160" height="8" as="geometry" />
        </mxCell>
        <mxCell id="pl0MzwOkIgg34zQqI0X9-21" value="+ makeLimitedEdition()" style="text;strokeColor=none;fillColor=none;align=left;verticalAlign=top;spacingLeft=4;spacingRight=4;overflow=hidden;rotatable=0;points=[[0,0.5],[1,0.5]];portConstraint=eastwest;whiteSpace=wrap;html=1;" parent="pl0MzwOkIgg34zQqI0X9-18" vertex="1">
          <mxGeometry y="98" width="160" height="26" as="geometry" />
        </mxCell>
        <mxCell id="pl0MzwOkIgg34zQqI0X9-28" value="Extends" style="endArrow=block;endSize=16;endFill=0;html=1;rounded=0;entryX=0.363;entryY=1.284;entryDx=0;entryDy=0;entryPerimeter=0;exitX=0.5;exitY=0;exitDx=0;exitDy=0;" parent="1" source="pl0MzwOkIgg34zQqI0X9-18" target="IGt5kcmPySrDVzL9us4Y-24" edge="1">
          <mxGeometry width="160" relative="1" as="geometry">
            <mxPoint x="980" y="360" as="sourcePoint" />
            <mxPoint x="1119.04" y="329.98400000000015" as="targetPoint" />
          </mxGeometry>
        </mxCell>
        <mxCell id="pl0MzwOkIgg34zQqI0X9-72" value="music" style="swimlane;fontStyle=1;align=center;verticalAlign=top;childLayout=stackLayout;horizontal=1;startSize=26;horizontalStack=0;resizeParent=1;resizeParentMax=0;resizeLast=0;collapsible=1;marginBottom=0;whiteSpace=wrap;html=1;" parent="1" vertex="1">
          <mxGeometry x="1180" y="449" width="160" height="110" as="geometry" />
        </mxCell>
        <mxCell id="pl0MzwOkIgg34zQqI0X9-73" value="- genre: enum&lt;div&gt;- wayOfPlaying: enum&lt;/div&gt;" style="text;strokeColor=none;fillColor=none;align=left;verticalAlign=top;spacingLeft=4;spacingRight=4;overflow=hidden;rotatable=0;points=[[0,0.5],[1,0.5]];portConstraint=eastwest;whiteSpace=wrap;html=1;" parent="pl0MzwOkIgg34zQqI0X9-72" vertex="1">
          <mxGeometry y="26" width="160" height="34" as="geometry" />
        </mxCell>
        <mxCell id="pl0MzwOkIgg34zQqI0X9-74" value="" style="line;strokeWidth=1;fillColor=none;align=left;verticalAlign=middle;spacingTop=-1;spacingLeft=3;spacingRight=3;rotatable=0;labelPosition=right;points=[];portConstraint=eastwest;strokeColor=inherit;" parent="pl0MzwOkIgg34zQqI0X9-72" vertex="1">
          <mxGeometry y="60" width="160" height="8" as="geometry" />
        </mxCell>
        <mxCell id="pl0MzwOkIgg34zQqI0X9-75" value="&lt;div&gt;+ addConcert&lt;/div&gt;" style="text;strokeColor=none;fillColor=none;align=left;verticalAlign=top;spacingLeft=4;spacingRight=4;overflow=hidden;rotatable=0;points=[[0,0.5],[1,0.5]];portConstraint=eastwest;whiteSpace=wrap;html=1;" parent="pl0MzwOkIgg34zQqI0X9-72" vertex="1">
          <mxGeometry y="68" width="160" height="42" as="geometry" />
        </mxCell>
        <mxCell id="7X1WRaAmBW6ElxP2y-qZ-3" value="Extends" style="endArrow=block;endSize=16;endFill=0;html=1;rounded=0;entryX=0.697;entryY=1.051;entryDx=0;entryDy=0;exitX=0.5;exitY=0;exitDx=0;exitDy=0;entryPerimeter=0;" parent="1" source="pl0MzwOkIgg34zQqI0X9-72" target="IGt5kcmPySrDVzL9us4Y-24" edge="1">
          <mxGeometry width="160" relative="1" as="geometry">
            <mxPoint x="820" y="550" as="sourcePoint" />
            <mxPoint x="1280" y="278" as="targetPoint" />
          </mxGeometry>
        </mxCell>
        <mxCell id="7X1WRaAmBW6ElxP2y-qZ-8" style="edgeStyle=orthogonalEdgeStyle;rounded=0;orthogonalLoop=1;jettySize=auto;html=1;exitX=0;exitY=0.5;exitDx=0;exitDy=0;entryX=0.5;entryY=0;entryDx=0;entryDy=0;" parent="1" edge="1">
          <mxGeometry relative="1" as="geometry">
            <mxPoint x="590" y="177.00000000000023" as="sourcePoint" />
            <mxPoint x="410" y="210" as="targetPoint" />
          </mxGeometry>
        </mxCell>
        <mxCell id="7X1WRaAmBW6ElxP2y-qZ-9" style="edgeStyle=orthogonalEdgeStyle;rounded=0;orthogonalLoop=1;jettySize=auto;html=1;entryX=0.5;entryY=0;entryDx=0;entryDy=0;" parent="1" edge="1">
          <mxGeometry relative="1" as="geometry">
            <Array as="points">
              <mxPoint x="935" y="180" />
              <mxPoint x="935" y="160" />
              <mxPoint x="1200" y="160" />
            </Array>
            <mxPoint x="750" y="180" as="sourcePoint" />
            <mxPoint x="1200" y="180" as="targetPoint" />
          </mxGeometry>
        </mxCell>
        <mxCell id="5Ifjruar0XOg7K9GVX_--2" value="Extends" style="endArrow=block;endSize=16;endFill=0;html=1;rounded=0;entryX=0.714;entryY=1.226;entryDx=0;entryDy=0;entryPerimeter=0;" parent="1" target="IGt5kcmPySrDVzL9us4Y-44" edge="1">
          <mxGeometry width="160" relative="1" as="geometry">
            <mxPoint x="610" y="540" as="sourcePoint" />
            <mxPoint x="420.0799999999999" y="340" as="targetPoint" />
          </mxGeometry>
        </mxCell>
        <mxCell id="5Ifjruar0XOg7K9GVX_--17" value="Extends" style="endArrow=block;endSize=16;endFill=0;html=1;rounded=0;exitX=0.5;exitY=0;exitDx=0;exitDy=0;entryX=0.274;entryY=1.133;entryDx=0;entryDy=0;entryPerimeter=0;" parent="1" target="IGt5kcmPySrDVzL9us4Y-44" edge="1">
          <mxGeometry width="160" relative="1" as="geometry">
            <mxPoint x="160" y="570" as="sourcePoint" />
            <mxPoint x="380.0799999999999" y="340" as="targetPoint" />
          </mxGeometry>
        </mxCell>
        <mxCell id="IGt5kcmPySrDVzL9us4Y-11" value="socialMedia" style="swimlane;fontStyle=1;align=center;verticalAlign=top;childLayout=stackLayout;horizontal=1;startSize=26;horizontalStack=0;resizeParent=1;resizeParentMax=0;resizeLast=0;collapsible=1;marginBottom=0;whiteSpace=wrap;html=1;" parent="1" vertex="1">
          <mxGeometry x="540" y="550" width="160" height="160" as="geometry" />
        </mxCell>
        <mxCell id="IGt5kcmPySrDVzL9us4Y-12" value="+&amp;nbsp;&lt;span style=&quot;background-color: initial;&quot;&gt;likeToDislikeRatio:int&lt;/span&gt;&lt;div&gt;-shareRatio:int&lt;/div&gt;&lt;div&gt;-platform:enum&lt;/div&gt;" style="text;strokeColor=none;fillColor=none;align=left;verticalAlign=top;spacingLeft=4;spacingRight=4;overflow=hidden;rotatable=0;points=[[0,0.5],[1,0.5]];portConstraint=eastwest;whiteSpace=wrap;html=1;" parent="IGt5kcmPySrDVzL9us4Y-11" vertex="1">
          <mxGeometry y="26" width="160" height="64" as="geometry" />
        </mxCell>
        <mxCell id="IGt5kcmPySrDVzL9us4Y-13" value="" style="line;strokeWidth=1;fillColor=none;align=left;verticalAlign=middle;spacingTop=-1;spacingLeft=3;spacingRight=3;rotatable=0;labelPosition=right;points=[];portConstraint=eastwest;strokeColor=inherit;" parent="IGt5kcmPySrDVzL9us4Y-11" vertex="1">
          <mxGeometry y="90" width="160" height="8" as="geometry" />
        </mxCell>
        <mxCell id="IGt5kcmPySrDVzL9us4Y-14" value="+makePost()&lt;div&gt;+makeAd()&lt;/div&gt;&lt;p style=&quot;margin: 0px 0px 0px 4px;&quot;&gt;&lt;span style=&quot;background-color: initial;&quot;&gt;+collab()&lt;/span&gt;()&lt;/p&gt;" style="text;strokeColor=none;fillColor=none;align=left;verticalAlign=top;spacingLeft=4;spacingRight=4;overflow=hidden;rotatable=0;points=[[0,0.5],[1,0.5]];portConstraint=eastwest;whiteSpace=wrap;html=1;" parent="IGt5kcmPySrDVzL9us4Y-11" vertex="1">
          <mxGeometry y="98" width="160" height="62" as="geometry" />
        </mxCell>
        <mxCell id="IGt5kcmPySrDVzL9us4Y-21" value="trends(abstract)" style="swimlane;fontStyle=1;align=center;verticalAlign=top;childLayout=stackLayout;horizontal=1;startSize=26;horizontalStack=0;resizeParent=1;resizeParentMax=0;resizeLast=0;collapsible=1;marginBottom=0;whiteSpace=wrap;html=1;" parent="1" vertex="1">
          <mxGeometry x="1120" y="180" width="160" height="144" as="geometry" />
        </mxCell>
        <mxCell id="IGt5kcmPySrDVzL9us4Y-22" value="-enum: type&lt;div&gt;-spreadRate; double&lt;/div&gt;&lt;div&gt;-numUpgrades; int&lt;/div&gt;&lt;div&gt;-peopleConverted; int&lt;/div&gt;&lt;div&gt;- InitialModifiers: enum&lt;br&gt;&lt;/div&gt;&lt;div&gt;&lt;br&gt;&lt;/div&gt;" style="text;strokeColor=none;fillColor=none;align=left;verticalAlign=top;spacingLeft=4;spacingRight=4;overflow=hidden;rotatable=0;points=[[0,0.5],[1,0.5]];portConstraint=eastwest;whiteSpace=wrap;html=1;" parent="IGt5kcmPySrDVzL9us4Y-21" vertex="1">
          <mxGeometry y="26" width="160" height="84" as="geometry" />
        </mxCell>
        <mxCell id="IGt5kcmPySrDVzL9us4Y-23" value="" style="line;strokeWidth=1;fillColor=none;align=left;verticalAlign=middle;spacingTop=-1;spacingLeft=3;spacingRight=3;rotatable=0;labelPosition=right;points=[];portConstraint=eastwest;strokeColor=inherit;" parent="IGt5kcmPySrDVzL9us4Y-21" vertex="1">
          <mxGeometry y="110" width="160" height="8" as="geometry" />
        </mxCell>
        <mxCell id="IGt5kcmPySrDVzL9us4Y-24" value="+ modify()" style="text;strokeColor=none;fillColor=none;align=left;verticalAlign=top;spacingLeft=4;spacingRight=4;overflow=hidden;rotatable=0;points=[[0,0.5],[1,0.5]];portConstraint=eastwest;whiteSpace=wrap;html=1;" parent="IGt5kcmPySrDVzL9us4Y-21" vertex="1">
          <mxGeometry y="118" width="160" height="26" as="geometry" />
        </mxCell>
        <mxCell id="5Ifjruar0XOg7K9GVX_--16" value="Extends" style="endArrow=block;endSize=16;endFill=0;html=1;rounded=0;exitX=0.518;exitY=0.052;exitDx=0;exitDy=0;exitPerimeter=0;entryX=0.475;entryY=1.133;entryDx=0;entryDy=0;entryPerimeter=0;" parent="1" target="IGt5kcmPySrDVzL9us4Y-44" edge="1">
          <mxGeometry width="160" relative="1" as="geometry">
            <mxPoint x="402.8800000000001" y="555.7199999999998" as="sourcePoint" />
            <mxPoint x="400.0799999999999" y="340" as="targetPoint" />
          </mxGeometry>
        </mxCell>
        <mxCell id="IGt5kcmPySrDVzL9us4Y-29" value="billboards" style="swimlane;fontStyle=1;align=center;verticalAlign=top;childLayout=stackLayout;horizontal=1;startSize=26;horizontalStack=0;resizeParent=1;resizeParentMax=0;resizeLast=0;collapsible=1;marginBottom=0;whiteSpace=wrap;html=1;" parent="1" vertex="1">
          <mxGeometry x="312" y="559" width="160" height="170" as="geometry" />
        </mxCell>
        <mxCell id="IGt5kcmPySrDVzL9us4Y-30" value="-location: int&lt;div&gt;-amountOfTraffic; int&lt;/div&gt;&lt;div&gt;-isScreen: boolean&lt;/div&gt;&lt;div&gt;-length: int&lt;/div&gt;&lt;div&gt;-price: int&lt;/div&gt;" style="text;strokeColor=none;fillColor=none;align=left;verticalAlign=top;spacingLeft=4;spacingRight=4;overflow=hidden;rotatable=0;points=[[0,0.5],[1,0.5]];portConstraint=eastwest;whiteSpace=wrap;html=1;" parent="IGt5kcmPySrDVzL9us4Y-29" vertex="1">
          <mxGeometry y="26" width="160" height="84" as="geometry" />
        </mxCell>
        <mxCell id="IGt5kcmPySrDVzL9us4Y-31" value="" style="line;strokeWidth=1;fillColor=none;align=left;verticalAlign=middle;spacingTop=-1;spacingLeft=3;spacingRight=3;rotatable=0;labelPosition=right;points=[];portConstraint=eastwest;strokeColor=inherit;" parent="IGt5kcmPySrDVzL9us4Y-29" vertex="1">
          <mxGeometry y="110" width="160" height="8" as="geometry" />
        </mxCell>
        <mxCell id="IGt5kcmPySrDVzL9us4Y-32" value="+ rent(int numberOfDays)&lt;div&gt;+buy()&lt;/div&gt;&lt;div&gt;+getNumberofViewers()&lt;/div&gt;" style="text;strokeColor=none;fillColor=none;align=left;verticalAlign=top;spacingLeft=4;spacingRight=4;overflow=hidden;rotatable=0;points=[[0,0.5],[1,0.5]];portConstraint=eastwest;whiteSpace=wrap;html=1;" parent="IGt5kcmPySrDVzL9us4Y-29" vertex="1">
          <mxGeometry y="118" width="160" height="52" as="geometry" />
        </mxCell>
        <mxCell id="IGt5kcmPySrDVzL9us4Y-37" value="magazine" style="swimlane;fontStyle=1;align=center;verticalAlign=top;childLayout=stackLayout;horizontal=1;startSize=26;horizontalStack=0;resizeParent=1;resizeParentMax=0;resizeLast=0;collapsible=1;marginBottom=0;whiteSpace=wrap;html=1;" parent="1" vertex="1">
          <mxGeometry x="80" y="570" width="160" height="124" as="geometry" />
        </mxCell>
        <mxCell id="IGt5kcmPySrDVzL9us4Y-38" value="-pages; int&lt;div&gt;-numberOfCopies:int&lt;/div&gt;&lt;div&gt;-location: enum&lt;/div&gt;&lt;div&gt;-frontPage: boolean&lt;/div&gt;" style="text;strokeColor=none;fillColor=none;align=left;verticalAlign=top;spacingLeft=4;spacingRight=4;overflow=hidden;rotatable=0;points=[[0,0.5],[1,0.5]];portConstraint=eastwest;whiteSpace=wrap;html=1;" parent="IGt5kcmPySrDVzL9us4Y-37" vertex="1">
          <mxGeometry y="26" width="160" height="64" as="geometry" />
        </mxCell>
        <mxCell id="IGt5kcmPySrDVzL9us4Y-39" value="" style="line;strokeWidth=1;fillColor=none;align=left;verticalAlign=middle;spacingTop=-1;spacingLeft=3;spacingRight=3;rotatable=0;labelPosition=right;points=[];portConstraint=eastwest;strokeColor=inherit;" parent="IGt5kcmPySrDVzL9us4Y-37" vertex="1">
          <mxGeometry y="90" width="160" height="8" as="geometry" />
        </mxCell>
        <mxCell id="IGt5kcmPySrDVzL9us4Y-40" value="+printMagazines()" style="text;strokeColor=none;fillColor=none;align=left;verticalAlign=top;spacingLeft=4;spacingRight=4;overflow=hidden;rotatable=0;points=[[0,0.5],[1,0.5]];portConstraint=eastwest;whiteSpace=wrap;html=1;" parent="IGt5kcmPySrDVzL9us4Y-37" vertex="1">
          <mxGeometry y="98" width="160" height="26" as="geometry" />
        </mxCell>
        <mxCell id="IGt5kcmPySrDVzL9us4Y-41" value="upgrades(abstract)" style="swimlane;fontStyle=1;align=center;verticalAlign=top;childLayout=stackLayout;horizontal=1;startSize=26;horizontalStack=0;resizeParent=1;resizeParentMax=0;resizeLast=0;collapsible=1;marginBottom=0;whiteSpace=wrap;html=1;" parent="1" vertex="1">
          <mxGeometry x="330" y="210" width="160" height="170" as="geometry" />
        </mxCell>
        <mxCell id="IGt5kcmPySrDVzL9us4Y-42" value="-targetAge; int&lt;div&gt;-targetGender enum&lt;/div&gt;&lt;div&gt;&lt;span style=&quot;background-color: initial;&quot;&gt;-targetRace: enum&lt;/span&gt;&lt;/div&gt;&lt;div&gt;&lt;span style=&quot;background-color: initial;&quot;&gt;-targetSalaryRange; int&lt;/span&gt;&lt;/div&gt;" style="text;strokeColor=none;fillColor=none;align=left;verticalAlign=top;spacingLeft=4;spacingRight=4;overflow=hidden;rotatable=0;points=[[0,0.5],[1,0.5]];portConstraint=eastwest;whiteSpace=wrap;html=1;" parent="IGt5kcmPySrDVzL9us4Y-41" vertex="1">
          <mxGeometry y="26" width="160" height="84" as="geometry" />
        </mxCell>
        <mxCell id="IGt5kcmPySrDVzL9us4Y-43" value="" style="line;strokeWidth=1;fillColor=none;align=left;verticalAlign=middle;spacingTop=-1;spacingLeft=3;spacingRight=3;rotatable=0;labelPosition=right;points=[];portConstraint=eastwest;strokeColor=inherit;" parent="IGt5kcmPySrDVzL9us4Y-41" vertex="1">
          <mxGeometry y="110" width="160" height="8" as="geometry" />
        </mxCell>
        <mxCell id="IGt5kcmPySrDVzL9us4Y-44" value="+getCost()&lt;div&gt;+getTargetAge()&lt;/div&gt;&lt;div&gt;+getTargetSalaryRange()&lt;/div&gt;" style="text;strokeColor=none;fillColor=none;align=left;verticalAlign=top;spacingLeft=4;spacingRight=4;overflow=hidden;rotatable=0;points=[[0,0.5],[1,0.5]];portConstraint=eastwest;whiteSpace=wrap;html=1;" parent="IGt5kcmPySrDVzL9us4Y-41" vertex="1">
          <mxGeometry y="118" width="160" height="52" as="geometry" />
        </mxCell>
        <mxCell id="IGt5kcmPySrDVzL9us4Y-51" value="viralWave" style="swimlane;fontStyle=1;align=center;verticalAlign=top;childLayout=stackLayout;horizontal=1;startSize=26;horizontalStack=0;resizeParent=1;resizeParentMax=0;resizeLast=0;collapsible=1;marginBottom=0;whiteSpace=wrap;html=1;" parent="1" vertex="1">
          <mxGeometry x="590" y="150" width="160" height="100" as="geometry" />
        </mxCell>
        <mxCell id="IGt5kcmPySrDVzL9us4Y-52" value="+numOfUpgrades" style="text;strokeColor=none;fillColor=none;align=left;verticalAlign=top;spacingLeft=4;spacingRight=4;overflow=hidden;rotatable=0;points=[[0,0.5],[1,0.5]];portConstraint=eastwest;whiteSpace=wrap;html=1;" parent="IGt5kcmPySrDVzL9us4Y-51" vertex="1">
          <mxGeometry y="26" width="160" height="26" as="geometry" />
        </mxCell>
        <mxCell id="IGt5kcmPySrDVzL9us4Y-53" value="" style="line;strokeWidth=1;fillColor=none;align=left;verticalAlign=middle;spacingTop=-1;spacingLeft=3;spacingRight=3;rotatable=0;labelPosition=right;points=[];portConstraint=eastwest;strokeColor=inherit;" parent="IGt5kcmPySrDVzL9us4Y-51" vertex="1">
          <mxGeometry y="52" width="160" height="8" as="geometry" />
        </mxCell>
        <mxCell id="IGt5kcmPySrDVzL9us4Y-54" value="+createNewSimulation()&lt;div&gt;+createUpgrade()&lt;/div&gt;" style="text;strokeColor=none;fillColor=none;align=left;verticalAlign=top;spacingLeft=4;spacingRight=4;overflow=hidden;rotatable=0;points=[[0,0.5],[1,0.5]];portConstraint=eastwest;whiteSpace=wrap;html=1;" parent="IGt5kcmPySrDVzL9us4Y-51" vertex="1">
          <mxGeometry y="60" width="160" height="40" as="geometry" />
        </mxCell>
        <mxCell id="JlKeFMcfDgWq--eiKVyz-4" value="Button" style="swimlane;fontStyle=1;align=center;verticalAlign=top;childLayout=stackLayout;horizontal=1;startSize=26;horizontalStack=0;resizeParent=1;resizeParentMax=0;resizeLast=0;collapsible=1;marginBottom=0;whiteSpace=wrap;html=1;" parent="1" vertex="1">
          <mxGeometry x="589" y="299" width="160" height="204" as="geometry" />
        </mxCell>
        <mxCell id="JlKeFMcfDgWq--eiKVyz-5" value="+ x: int&lt;div&gt;+ y: int&lt;/div&gt;&lt;div&gt;+ wid : int&lt;/div&gt;&lt;div&gt;+ hei: int&lt;/div&gt;&lt;div&gt;+ text: String&lt;/div&gt;&lt;div&gt;+ textSize: int&lt;/div&gt;&lt;div&gt;+ isPressed(): boolean&lt;/div&gt;" style="text;strokeColor=none;fillColor=none;align=left;verticalAlign=top;spacingLeft=4;spacingRight=4;overflow=hidden;rotatable=0;points=[[0,0.5],[1,0.5]];portConstraint=eastwest;whiteSpace=wrap;html=1;" parent="JlKeFMcfDgWq--eiKVyz-4" vertex="1">
          <mxGeometry y="26" width="160" height="144" as="geometry" />
        </mxCell>
        <mxCell id="JlKeFMcfDgWq--eiKVyz-6" value="" style="line;strokeWidth=1;fillColor=none;align=left;verticalAlign=middle;spacingTop=-1;spacingLeft=3;spacingRight=3;rotatable=0;labelPosition=right;points=[];portConstraint=eastwest;strokeColor=inherit;" parent="JlKeFMcfDgWq--eiKVyz-4" vertex="1">
          <mxGeometry y="170" width="160" height="8" as="geometry" />
        </mxCell>
        <mxCell id="JlKeFMcfDgWq--eiKVyz-7" value="+ display(): void" style="text;strokeColor=none;fillColor=none;align=left;verticalAlign=top;spacingLeft=4;spacingRight=4;overflow=hidden;rotatable=0;points=[[0,0.5],[1,0.5]];portConstraint=eastwest;whiteSpace=wrap;html=1;" parent="JlKeFMcfDgWq--eiKVyz-4" vertex="1">
          <mxGeometry y="178" width="160" height="26" as="geometry" />
        </mxCell>
        <mxCell id="JlKeFMcfDgWq--eiKVyz-13" value="Screen" style="swimlane;fontStyle=1;align=center;verticalAlign=top;childLayout=stackLayout;horizontal=1;startSize=26;horizontalStack=0;resizeParent=1;resizeParentMax=0;resizeLast=0;collapsible=1;marginBottom=0;whiteSpace=wrap;html=1;" parent="1" vertex="1">
          <mxGeometry x="810" y="266" width="240" height="140" as="geometry" />
        </mxCell>
        <mxCell id="JlKeFMcfDgWq--eiKVyz-14" value="+ width: int&lt;div&gt;+ buttons: Button[]&lt;br&gt;&lt;div&gt;+ height: int&lt;/div&gt;&lt;/div&gt;" style="text;strokeColor=none;fillColor=none;align=left;verticalAlign=top;spacingLeft=4;spacingRight=4;overflow=hidden;rotatable=0;points=[[0,0.5],[1,0.5]];portConstraint=eastwest;whiteSpace=wrap;html=1;" parent="JlKeFMcfDgWq--eiKVyz-13" vertex="1">
          <mxGeometry y="26" width="240" height="54" as="geometry" />
        </mxCell>
        <mxCell id="JlKeFMcfDgWq--eiKVyz-15" value="" style="line;strokeWidth=1;fillColor=none;align=left;verticalAlign=middle;spacingTop=-1;spacingLeft=3;spacingRight=3;rotatable=0;labelPosition=right;points=[];portConstraint=eastwest;strokeColor=inherit;" parent="JlKeFMcfDgWq--eiKVyz-13" vertex="1">
          <mxGeometry y="80" width="240" height="8" as="geometry" />
        </mxCell>
        <mxCell id="JlKeFMcfDgWq--eiKVyz-16" value="+addButton(int,int,int,int,String,int,int) : void&lt;div&gt;+display() : void&lt;/div&gt;&lt;div&gt;+getButtons() : Button[]&lt;/div&gt;" style="text;strokeColor=none;fillColor=none;align=left;verticalAlign=top;spacingLeft=4;spacingRight=4;overflow=hidden;rotatable=0;points=[[0,0.5],[1,0.5]];portConstraint=eastwest;whiteSpace=wrap;html=1;" parent="JlKeFMcfDgWq--eiKVyz-13" vertex="1">
          <mxGeometry y="88" width="240" height="52" as="geometry" />
        </mxCell>
        <mxCell id="JlKeFMcfDgWq--eiKVyz-17" style="edgeStyle=orthogonalEdgeStyle;rounded=0;orthogonalLoop=1;jettySize=auto;html=1;entryX=0;entryY=0.5;entryDx=0;entryDy=0;" parent="1" source="JlKeFMcfDgWq--eiKVyz-5" target="JlKeFMcfDgWq--eiKVyz-13" edge="1">
          <mxGeometry relative="1" as="geometry" />
        </mxCell>
        <mxCell id="JlKeFMcfDgWq--eiKVyz-19" style="edgeStyle=orthogonalEdgeStyle;rounded=0;orthogonalLoop=1;jettySize=auto;html=1;entryX=1.036;entryY=0.065;entryDx=0;entryDy=0;entryPerimeter=0;" parent="1" source="JlKeFMcfDgWq--eiKVyz-13" target="IGt5kcmPySrDVzL9us4Y-54" edge="1">
          <mxGeometry relative="1" as="geometry" />
        </mxCell>
        <mxCell id="6GBfLkEmgiwLsy3CYMCn-5" style="edgeStyle=orthogonalEdgeStyle;rounded=0;orthogonalLoop=1;jettySize=auto;html=1;exitX=0.5;exitY=0;exitDx=0;exitDy=0;entryX=0.5;entryY=0;entryDx=0;entryDy=0;" edge="1" parent="1" source="6GBfLkEmgiwLsy3CYMCn-1" target="IGt5kcmPySrDVzL9us4Y-51">
          <mxGeometry relative="1" as="geometry" />
        </mxCell>
        <mxCell id="6GBfLkEmgiwLsy3CYMCn-1" value="County" style="swimlane;fontStyle=1;align=center;verticalAlign=top;childLayout=stackLayout;horizontal=1;startSize=26;horizontalStack=0;resizeParent=1;resizeParentMax=0;resizeLast=0;collapsible=1;marginBottom=0;whiteSpace=wrap;html=1;" vertex="1" parent="1">
          <mxGeometry x="50" y="140" width="240" height="178" as="geometry" />
        </mxCell>
        <mxCell id="6GBfLkEmgiwLsy3CYMCn-2" value="&lt;div&gt;&lt;span style=&quot;background-color: transparent; color: light-dark(rgb(0, 0, 0), rgb(255, 255, 255));&quot;&gt;- id: int&lt;/span&gt;&lt;/div&gt;&lt;div&gt;- name: String&lt;/div&gt;&lt;div&gt;- popDensity: float&lt;/div&gt;&lt;div&gt;- child, youngAdult, adult, retired: int&lt;/div&gt;&lt;div&gt;- white, black, asian, hispanic: int&lt;/div&gt;" style="text;strokeColor=none;fillColor=none;align=left;verticalAlign=top;spacingLeft=4;spacingRight=4;overflow=hidden;rotatable=0;points=[[0,0.5],[1,0.5]];portConstraint=eastwest;whiteSpace=wrap;html=1;" vertex="1" parent="6GBfLkEmgiwLsy3CYMCn-1">
          <mxGeometry y="26" width="240" height="94" as="geometry" />
        </mxCell>
        <mxCell id="6GBfLkEmgiwLsy3CYMCn-3" value="" style="line;strokeWidth=1;fillColor=none;align=left;verticalAlign=middle;spacingTop=-1;spacingLeft=3;spacingRight=3;rotatable=0;labelPosition=right;points=[];portConstraint=eastwest;strokeColor=inherit;" vertex="1" parent="6GBfLkEmgiwLsy3CYMCn-1">
          <mxGeometry y="120" width="240" height="8" as="geometry" />
        </mxCell>
        <mxCell id="6GBfLkEmgiwLsy3CYMCn-4" value="+ getPop: int&lt;div&gt;+ toString: String&lt;/div&gt;" style="text;strokeColor=none;fillColor=none;align=left;verticalAlign=top;spacingLeft=4;spacingRight=4;overflow=hidden;rotatable=0;points=[[0,0.5],[1,0.5]];portConstraint=eastwest;whiteSpace=wrap;html=1;" vertex="1" parent="6GBfLkEmgiwLsy3CYMCn-1">
          <mxGeometry y="128" width="240" height="50" as="geometry" />
        </mxCell>
      </root>
    </mxGraphModel>
  </diagram>
</mxfile>
